<svg xmlns="http://www.w3.org/2000/svg" viewBox="0 0 64 64" fill="none">
  <circle cx="32" cy="32" r="30" fill="#FFDDC1"/>
  <circle cx="32" cy="32" r="24" fill="#FFABAB"/>
  <circle cx="32" cy="32" r="20" fill="#FF677D"/>
  <circle cx="24" cy="28" r="2" fill="#FFFFFF"/>
  <circle cx="40" cy="28" r="2" fill="#FFFFFF"/>
  <path d="M32 36C30.3431 36 29 37.3431 29 39C29 40.6569 30.3431 42 32 42C33.6569 42 35 40.6569 35 39C35 37.3431 33.6569 36 32 36Z" fill="#FFFFFF"/>
  <path d="M32 2C15.431 2 2 15.431 2 32C2 48.569 15.431 62 32 62C48.569 62 62 48.569 62 32C62 15.431 48.569 2 32 2ZM32 58C17.664 58 6 46.336 6 32C6 17.664 17.664 6 32 6C46.336 6 58 17.664 58 32C58 46.336 46.336 58 32 58Z" fill="#FF6F61"/>
</svg>